<?xml version="1.0" standalone="no"?>
<!DOCTYPE svg PUBLIC "-//W3C//DTD SVG 20010904//EN"
 "http://www.w3.org/TR/2001/REC-SVG-20010904/DTD/svg10.dtd">
<svg version="1.0" xmlns="http://www.w3.org/2000/svg"
  width="288" height="288" viewBox="0 0 16 16"
 preserveAspectRatio="xMidYMid meet">
<defs id="SvgjsDefs1002"></defs>
<g id="SvgjsG1008"
fill="#000000">
<path fill="#000000" d="M11.736 13.34a7.221 7.221 0 0 0 3.375-6.133C15.111 3.228 11.927 0 8 0 4.072 0 .889 3.228.889 7.208c0 3.982 3.183 7.208 7.111 7.208.578 0 1.138-.071 1.676-.203.674 1.227 1.704 2.097 3.886 1.682v-1.223s-1.399-.352-1.826-1.332zm-.05-5.178c0 1.203-.384 2.296-1.006 3.102a4.49 4.49 0 0 0-3.56-1.429V11.252s1.055.042 1.776 1.282c-.271.08-.551.123-.842.123-2.006 0-3.631-2.013-3.631-4.496V6.305c0-2.484 1.625-4.497 3.631-4.497s3.633 2.013 3.633 4.497l-.001 1.857z" class="colorF44336 svgShape"></path>
</g>
</svg>
